<svg width="80" height="81" viewBox="0 0 80 81" fill="none" xmlns="http://www.w3.org/2000/svg">
<path d="M46.6667 10.5H13.3333C12.4493 10.5 11.6014 10.8512 10.9763 11.4763C10.3512 12.1014 10 12.9493 10 13.8333V68.5C10 69.6046 10.8954 70.5 12 70.5H21.3333C22.4379 70.5 23.3333 69.6046 23.3333 68.5V52.5C23.3333 51.3954 24.2288 50.5 25.3333 50.5H34.6667C35.7712 50.5 36.6667 51.3954 36.6667 52.5V68.5C36.6667 69.6046 37.5621 70.5 38.6667 70.5H48C49.1046 70.5 50 69.6046 50 68.5V13.8333C50 12.9493 49.6488 12.1014 49.0237 11.4763C48.3986 10.8512 47.5507 10.5 46.6667 10.5Z" fill="#B5EADA" stroke="#B5EADA" stroke-width="6.66667"/>
<path d="M23.3333 23.8333H36.6667M23.3333 37.1667H36.6667M50 70.5H10V13.8333C10 12.9493 10.3512 12.1014 10.9763 11.4763C11.6014 10.8512 12.4493 10.5 13.3333 10.5H46.6667C47.5507 10.5 48.3986 10.8512 49.0237 11.4763C49.6488 12.1014 50 12.9493 50 13.8333V70.5ZM50 70.5H70V29.5667C70.0379 28.8398 69.8369 28.1205 69.4276 27.5186C69.0183 26.9167 68.4233 26.4653 67.7333 26.2333L50 20.5V70.5ZM36.6667 70.5V50.5H23.3333V70.5H36.6667Z" stroke="#16171B" stroke-width="6.66667" stroke-linecap="round" stroke-linejoin="round"/>
</svg>
