<svg width="128" height="28" viewBox="0 0 128 28" fill="none" xmlns="http://www.w3.org/2000/svg">
<path d="M15 7.43753C15 11.0619 12.0619 14 8.4375 14H1.875V7.43753C1.875 3.81316 4.81313 0.875031 8.4375 0.875031C12.0619 0.875031 15 3.81316 15 7.43753Z" fill="#17CF97"/>
<path d="M15 20.5625C15 16.9382 17.9381 14 21.5625 14H28.125V20.5625C28.125 24.1869 25.1869 27.125 21.5625 27.125C17.9381 27.125 15 24.1869 15 20.5625Z" fill="#17CF97"/>
<path d="M1.875 20.5625C1.875 24.1869 4.81313 27.125 8.4375 27.125H15V20.5625C15 16.9382 12.0619 14 8.4375 14C4.81313 14 1.875 16.9382 1.875 20.5625Z" fill="#17CF97"/>
<path d="M28.125 7.43753C28.125 3.81316 25.1869 0.875031 21.5625 0.875031H15V7.43753C15 11.0619 17.9381 14 21.5625 14C25.1869 14 28.125 11.0619 28.125 7.43753Z" fill="#17CF97"/>
<path d="M38.236 17.676V22.5H34.972V5.22H42.268C42.604 5.22 43.264 5.232 43.708 5.316C45.772 5.64 46.996 6.444 47.668 7.908C48.004 8.64 48.172 9.492 48.172 10.464C48.172 12.768 47.536 14.712 44.668 14.892L44.728 16.608H39.316C38.464 16.608 38.212 16.476 37.72 16.14L37.54 16.344C37.984 16.728 38.236 17.088 38.236 17.676ZM41.164 15.192C43.06 15.192 44.92 15.096 46.204 15.36C46.744 15.48 47.224 15.768 47.644 16.212C47.98 16.572 48.148 17.148 48.148 17.94C48.148 18.744 48.148 19.344 48.148 19.752V22.5H44.908V19.74C44.908 18.732 44.92 17.904 44.644 17.412C44.356 16.872 43.9 16.608 43.264 16.608C42.628 16.608 41.932 16.608 41.164 16.608V15.192ZM37.54 14.04L37.732 14.232C38.152 13.812 38.536 13.596 39.316 13.596H42.124C42.46 13.596 42.892 13.572 43.228 13.476C44.104 13.236 44.56 12.612 44.752 11.916C44.836 11.568 44.884 11.244 44.884 10.932C44.884 10.308 44.728 9.564 44.248 8.988C44.008 8.712 43.672 8.508 43.228 8.388C42.892 8.292 42.46 8.268 42.124 8.268H39.316C38.596 8.268 38.284 8.016 37.84 7.512L37.612 7.668C37.996 8.124 38.236 8.664 38.236 9.336V12.624C38.236 13.356 37.972 13.656 37.54 14.04ZM56.4741 22.86C53.8221 22.86 51.7341 21.648 50.5941 19.632C50.0181 18.636 49.7301 17.484 49.7301 16.188C49.7301 13.356 50.9181 11.208 52.8861 10.044C53.8701 9.468 54.9981 9.18 56.2821 9.18C59.0061 9.18 60.9501 10.524 61.8621 12.84C62.3181 14.004 62.4741 15.36 62.3421 16.932H59.1141V15.732C59.1141 13.092 58.3341 12.012 56.4261 12.012C54.2061 12.012 53.1861 13.38 53.1861 16.02C53.1861 18.432 54.2541 19.812 56.2821 19.812C57.5661 19.812 58.4901 19.236 58.9701 18.18H62.3901C61.7541 21.384 58.9701 22.86 56.4741 22.86ZM60.7701 16.932H52.1781V14.508H53.2101L53.1021 15.612H53.4861C53.5701 14.892 54.1101 14.508 55.0101 14.508H60.7701V16.932ZM70.1637 22.86C67.4757 22.86 65.5197 21.576 64.4997 19.512C63.9837 18.48 63.7317 17.316 63.7317 16.02C63.7317 13.392 64.8477 11.256 66.7797 10.068C67.7517 9.48 68.8917 9.18 70.2117 9.18C73.2717 9.18 75.6117 10.896 76.0437 14.364H72.7797C72.3957 13.02 71.3637 12.228 70.1637 12.228C68.1597 12.228 67.1877 13.752 67.1877 16.02C67.1877 18.276 68.1957 19.812 70.1637 19.812C71.6397 19.812 72.3237 19.116 72.7077 17.868H76.0437C75.6117 21.276 73.1757 22.86 70.1637 22.86ZM83.3243 22.86C80.7203 22.86 78.6923 21.624 77.6003 19.56C77.0483 18.54 76.7723 17.352 76.7723 16.02C76.7723 13.32 77.9603 11.196 79.9283 10.044C80.9123 9.468 82.0403 9.18 83.3243 9.18C85.9283 9.18 87.9683 10.416 89.0723 12.468C89.6243 13.5 89.9003 14.688 89.9003 16.02C89.9003 18.708 88.7243 20.832 86.7563 21.984C85.7603 22.572 84.6203 22.86 83.3243 22.86ZM83.3243 19.812C85.4243 19.812 86.4443 18.24 86.4443 16.02C86.4443 13.716 85.3883 12.228 83.3243 12.228C81.2483 12.228 80.2283 13.692 80.2283 16.02C80.2283 18.336 81.2963 19.812 83.3243 19.812ZM95.2272 22.5H91.9392V9.54H94.8192V10.116C94.8192 10.98 94.5912 11.832 94.3512 12.708H94.6272C95.0472 11.496 95.3832 10.728 95.6352 10.38C96.1152 9.696 96.7752 9.504 97.6992 9.504H99.5472V12.504L97.4112 12.516C96.6072 12.504 96.0432 12.672 95.7192 13.02C95.3712 13.392 95.2032 14.052 95.2392 14.988L95.2272 22.5ZM105.783 22.86C103.575 22.86 101.871 21.576 100.959 19.512C100.491 18.48 100.263 17.316 100.263 16.02C100.263 13.38 101.247 11.256 102.951 10.068C103.803 9.48 104.799 9.18 105.939 9.18C109.227 9.18 111.159 11.952 111.159 16.02C111.159 20.088 109.227 22.86 105.783 22.86ZM112.623 5.22V22.5H109.743V22.236C109.743 21.564 110.175 20.784 110.559 20.364L110.211 20.112L109.743 20.76V13.62H109.335V10.716L109.875 11.28L110.175 11.076C109.599 10.524 109.335 9.828 109.335 9.36V5.22H112.623ZM106.767 19.956C108.219 19.956 109.071 19.272 109.455 18.084C109.647 17.496 109.743 16.8 109.743 16.02C109.743 14.448 109.383 13.236 108.543 12.576C108.123 12.252 107.571 12.084 106.887 12.084C104.775 12.084 103.719 13.728 103.719 16.02C103.719 18.336 104.739 19.956 106.767 19.956ZM120.459 22.86C117.195 22.86 115.131 21.48 114.615 18.108H118.011C118.287 19.32 119.259 20.052 120.699 20.052C121.887 20.052 122.547 19.572 122.547 18.756C122.547 18.24 122.391 17.976 121.503 17.676C121.059 17.52 120.363 17.328 119.427 17.076C117.315 16.536 116.091 15.888 115.527 14.952C115.251 14.484 115.107 13.92 115.107 13.26C115.107 11.592 115.995 10.344 117.543 9.672C118.311 9.348 119.223 9.18 120.267 9.18C122.295 9.18 123.903 9.828 124.875 10.98C125.355 11.556 125.655 12.432 125.775 13.62H122.427C122.319 12.66 121.575 12.084 120.339 11.988C119.139 11.904 118.347 12.336 118.347 13.092C118.347 13.596 118.683 13.836 119.559 14.124C120.051 14.28 120.795 14.496 121.803 14.748C124.647 15.492 125.883 16.524 125.883 18.588C125.883 21.24 123.855 22.86 120.459 22.86Z" fill="#1A191A"/>
</svg>
